<svg xmlns="http://www.w3.org/2000/svg">
  <symbol id="rss" viewBox="0 0 24 24"><rect x="0" y="0" fill="none" stroke="none" />
    <path fill="currentColor" d="M6.18 15.64a2.18 2.18 0 0 1 2.18 2.18C8.36 19 7.38 20 6.18 20C5 20 4 19 4 17.82a2.18 2.18 0 0 1 2.18-2.18M4 4.44A15.56 15.56 0 0 1 19.56 20h-2.83A12.73 12.73 0 0 0 4 7.27V4.44m0 5.66a9.9 9.9 0 0 1 9.9 9.9h-2.83A7.07 7.07 0 0 0 4 12.93V10.1Z"/>
  </symbol>

  <symbol id="darkMode" viewBox="0 0 24 24"><rect x="0" y="0" fill="none" stroke="none" />
    <path fill="currentColor" d="M12 21q-3.775 0-6.388-2.613T3 12q0-3.45 2.25-5.988T11 3.05q.625-.075.975.45t-.025 1.1q-.425.65-.638 1.375T11.1 7.5q0 2.25 1.575 3.825T16.5 12.9q.775 0 1.538-.225t1.362-.625q.525-.35 1.075-.037t.475.987q-.35 3.45-2.937 5.725T12 21Zm0-2q2.2 0 3.95-1.213t2.55-3.162q-.5.125-1 .2t-1 .075q-3.075 0-5.238-2.163T9.1 7.5q0-.5.075-1t.2-1q-1.95.8-3.163 2.55T5 12q0 2.9 2.05 4.95T12 19Zm-.25-6.75Z"/>
  </symbol>

  <symbol id="lightMode" viewBox="0 0 24 24"><rect x="0" y="0" fill="none" stroke="none" />
    <path fill="currentColor" d="M12 15q1.25 0 2.125-.875T15 12q0-1.25-.875-2.125T12 9q-1.25 0-2.125.875T9 12q0 1.25.875 2.125T12 15Zm0 2q-2.075 0-3.538-1.463T7 12q0-2.075 1.463-3.538T12 7q2.075 0 3.538 1.463T17 12q0 2.075-1.463 3.538T12 17ZM2 13q-.425 0-.713-.288T1 12q0-.425.288-.713T2 11h2q.425 0 .713.288T5 12q0 .425-.288.713T4 13H2Zm18 0q-.425 0-.713-.288T19 12q0-.425.288-.713T20 11h2q.425 0 .713.288T23 12q0 .425-.288.713T22 13h-2Zm-8-8q-.425 0-.713-.288T11 4V2q0-.425.288-.713T12 1q.425 0 .713.288T13 2v2q0 .425-.288.713T12 5Zm0 18q-.425 0-.713-.288T11 22v-2q0-.425.288-.713T12 19q.425 0 .713.288T13 20v2q0 .425-.288.713T12 23ZM5.65 7.05L4.575 6q-.3-.275-.288-.7t.288-.725q.3-.3.725-.3t.7.3L7.05 5.65q.275.3.275.7t-.275.7q-.275.3-.687.288T5.65 7.05ZM18 19.425l-1.05-1.075q-.275-.3-.275-.713t.275-.687q.275-.3.688-.287t.712.287L19.425 18q.3.275.288.7t-.288.725q-.3.3-.725.3t-.7-.3ZM16.95 7.05q-.3-.275-.288-.687t.288-.713L18 4.575q.275-.3.7-.288t.725.288q.3.3.3.725t-.3.7L18.35 7.05q-.3.275-.7.275t-.7-.275ZM4.575 19.425q-.3-.3-.3-.725t.3-.7l1.075-1.05q.3-.275.712-.275t.688.275q.3.275.288.688t-.288.712L6 19.425q-.275.3-.7.288t-.725-.288ZM12 12Z" />
  </symbol>

  <symbol id="chevronLeft" viewBox="0 0 24 24"><rect x="0" y="0" fill="none" stroke="none" />
    <path fill="currentColor" d="M15.41 16.58L10.83 12l4.58-4.59L14 6l-6 6l6 6l1.41-1.42Z" />
  </symbol>

  <symbol id="chevronRight" viewBox="0 0 24 24"><rect x="0" y="0" fill="none" stroke="none" />
    <path fill="currentColor" d="M8.59 16.58L13.17 12L8.59 7.41L10 6l6 6l-6 6l-1.41-1.42Z" />
  </symbol>

  <symbol id="email" viewBox="0 0 32 32"><rect x="0" y="0" fill="none" stroke="none" />
    <path fill="currentColor" d="M29,4H3A3,3,0,0,0,0,7V25a3,3,0,0,0,3,3H29a3,3,0,0,0,3-3V7A3,3,0,0,0,29,4Zm-.72,2L16,14.77,3.72,6ZM30,25a1,1,0,0,1-1,1H3a1,1,0,0,1-1-1V7.23l13.42,9.58a1,1,0,0,0,1.16,0L30,7.23Z" />
  </symbol>

  <symbol id="github" viewBox="0 0 98 96"><rect x="0" y="0" fill="none" stroke="none" />
    <path fill="currentColor" d="M48.854 0C21.839 0 0 22 0 49.217c0 21.756 13.993 40.172 33.405 46.69 2.427.49 3.316-1.059 3.316-2.362 0-1.141-.08-5.052-.08-9.127-13.59 2.934-16.42-5.867-16.42-5.867-2.184-5.704-5.42-7.17-5.42-7.17-4.448-3.015.324-3.015.324-3.015 4.934.326 7.523 5.052 7.523 5.052 4.367 7.496 11.404 5.378 14.235 4.074.404-3.178 1.699-5.378 3.074-6.6-10.839-1.141-22.243-5.378-22.243-24.283 0-5.378 1.94-9.778 5.014-13.2-.485-1.222-2.184-6.275.486-13.038 0 0 4.125-1.304 13.426 5.052a46.97 46.97 0 0 1 12.214-1.63c4.125 0 8.33.571 12.213 1.63 9.302-6.356 13.427-5.052 13.427-5.052 2.67 6.763.97 11.816.485 13.038 3.155 3.422 5.015 7.822 5.015 13.2 0 18.905-11.404 23.06-22.324 24.283 1.78 1.548 3.316 4.481 3.316 9.126 0 6.6-.08 11.897-.08 13.526 0 1.304.89 2.853 3.316 2.364 19.412-6.52 33.405-24.935 33.405-46.691C97.707 22 75.788 0 48.854 0z" />
  </symbol>

  <symbol id="threads" viewBox="0 0 192 192"><rect x="0" y="0" fill="none" stroke="none" />
    <path fill="currentColor" d="M141.537 88.9883C140.71 88.5919 139.87 88.2104 139.019 87.8451C137.537 60.5382 122.616 44.905 97.5619 44.745C97.4484 44.7443 97.3355 44.7443 97.222 44.7443C82.2364 44.7443 69.7731 51.1409 62.102 62.7807L75.881 72.2328C81.6116 63.5383 90.6052 61.6848 97.2286 61.6848C97.3051 61.6848 97.3819 61.6848 97.4576 61.6855C105.707 61.7381 111.932 64.1366 115.961 68.814C118.893 72.2193 120.854 76.925 121.825 82.8638C114.511 81.6207 106.601 81.2385 98.145 81.7233C74.3247 83.0954 59.0111 96.9879 60.0396 116.292C60.5615 126.084 65.4397 134.508 73.775 140.011C80.8224 144.663 89.899 146.938 99.3323 146.423C111.79 145.74 121.563 140.987 128.381 132.296C133.559 125.696 136.834 117.143 138.28 106.366C144.217 109.949 148.617 114.664 151.047 120.332C155.179 129.967 155.42 145.8 142.501 158.708C131.182 170.016 117.576 174.908 97.0135 175.059C74.2042 174.89 56.9538 167.575 45.7381 153.317C35.2355 139.966 29.8077 120.682 29.6052 96C29.8077 71.3178 35.2355 52.0336 45.7381 38.6827C56.9538 24.4249 74.2039 17.11 97.0132 16.9405C119.988 17.1113 137.539 24.4614 149.184 38.788C154.894 45.8136 159.199 54.6488 162.037 64.9503L178.184 60.6422C174.744 47.9622 169.331 37.0357 161.965 27.974C147.036 9.60668 125.202 0.195148 97.0695 0H96.9569C68.8816 0.19447 47.2921 9.6418 32.7883 28.0793C19.8819 44.4864 13.2244 67.3157 13.0007 95.9325L13 96L13.0007 96.0675C13.2244 124.684 19.8819 147.514 32.7883 163.921C47.2921 182.358 68.8816 191.806 96.9569 192H97.0695C122.03 191.827 139.624 185.292 154.118 170.811C173.081 151.866 172.51 128.119 166.26 113.541C161.776 103.087 153.227 94.5962 141.537 88.9883ZM98.4405 129.507C88.0005 130.095 77.1544 125.409 76.6196 115.372C76.2232 107.93 81.9158 99.626 99.0812 98.6368C101.047 98.5234 102.976 98.468 104.871 98.468C111.106 98.468 116.939 99.0737 122.242 100.233C120.264 124.935 108.662 128.946 98.4405 129.507Z" />
  </symbol>

  <symbol id="linkedin" viewBox="0 0 72 72"><rect x="0" y="0" fill="none" stroke="none" />
    <path fill="currentColor" d="M64,0H8C3.6,0,0,3.6,0,8v56c0,4.4,3.6,8,8,8h56c4.4,0,8-3.6,8-8V8c0-4.4-3.6-8-8-8ZM21.8,62h-10.7V27.3h10.7v34.7ZM16.3,22.8c-3.5,0-6.3-2.9-6.3-6.4s2.8-6.4,6.3-6.4,6.3,2.9,6.3,6.4-2.8,6.4-6.3,6.4ZM62,62h-10.7v-18.2c0-5-1.9-7.8-5.8-7.8s-6.5,2.9-6.5,7.8v18.2h-10.3V27.3h10.3v4.7s3.1-5.7,10.5-5.7,12.6,4.5,12.6,13.8v21.9Z" />
  </symbol>
</svg>
